STARTFONT 2.1
COMMENT the Lisp Machine name for this font was "25vmic.ast"
FONT vmic-25.bdf
SIZE 24 75 75
FONTBOUNDINGBOX 28 20 0 0
STARTPROPERTIES 3
FONT_DESCENT 5
FONT_ASCENT 20
COPYRIGHT "Public domain font.  Share and enjoy."
ENDPROPERTIES
CHARS 125
STARTCHAR C001
ENCODING 1
SWIDTH 666 0
DWIDTH 16 0
BBX 16 25 0 -5
BITMAP
0700
0700
0700
0700
0700
0700
0700
0700
0700
0700
0700
0700
0700
0700
e738
7770
3fe0
1fc0
0f80
0700
0200
0000
0000
0000
0000
ENDCHAR
STARTCHAR C002
ENCODING 2
SWIDTH 916 0
DWIDTH 22 0
BBX 22 25 0 -5
BITMAP
000000
000000
000000
000000
000000
000000
000060
0000c0
000180
000180
1c0300
3f0600
61ce00
c07c00
c03c00
c03000
40e000
61d830
3f0e60
1e07c0
000000
000000
000000
000000
000000
ENDCHAR
STARTCHAR C003
ENCODING 3
SWIDTH 833 0
DWIDTH 20 0
BBX 20 25 0 -5
BITMAP
000000
000f00
001980
0031c0
0060c0
00c0c0
01c180
018300
010300
030600
030c00
061e00
060600
0c0700
0c0380
1801c0
1800c0
390180
31c300
30fe00
700000
600000
600000
600000
e00000
ENDCHAR
STARTCHAR C004
ENCODING 4
SWIDTH 708 0
DWIDTH 17 0
BBX 17 25 0 -5
BITMAP
0000
0000
0000
0100
0100
0380
0380
07c0
07c0
0ee0
0ee0
1c70
1c70
3838
3838
701c
701c
e00e
e00e
0000
0000
0000
0000
0000
0000
ENDCHAR
STARTCHAR C005
ENCODING 5
SWIDTH 500 0
DWIDTH 12 0
BBX 12 25 0 -5
BITMAP
0000
0000
0000
0000
0000
0000
0000
0000
0000
0000
ffe0
ffe0
ffe0
00e0
00e0
00e0
0000
0000
0000
0000
0000
0000
0000
0000
0000
ENDCHAR
STARTCHAR C006
ENCODING 6
SWIDTH 500 0
DWIDTH 12 0
BBX 12 25 0 -5
BITMAP
0000
0000
0000
0000
0780
0f80
1c00
3800
7000
e000
ff80
ff80
ff80
e000
7000
3800
1c00
0f80
0780
0000
0000
0000
0000
0000
0000
ENDCHAR
STARTCHAR C007
ENCODING 7
SWIDTH 666 0
DWIDTH 16 0
BBX 16 25 0 -5
BITMAP
0000
0000
0000
0000
0000
0000
0000
ffc0
fff8
307c
3060
3060
3060
3060
3060
3060
3060
3060
3060
f060
003c
0000
0000
0000
0000
ENDCHAR
STARTCHAR C010
ENCODING 8
SWIDTH 625 0
DWIDTH 15 0
BBX 15 25 0 -5
BITMAP
0000
0000
c000
f000
7800
1800
0c00
0c00
0600
0600
0600
0f00
1b00
3180
3180
60c0
e0c0
c060
8038
0018
0000
0000
0000
0000
0000
ENDCHAR
STARTCHAR C011
ENCODING 9
SWIDTH 41 0
DWIDTH 1 0
BBX 1 25 0 -5
BITMAP
00
00
00
00
00
00
00
00
00
00
00
00
00
00
00
00
00
00
00
00
00
00
00
00
00
ENDCHAR
STARTCHAR C012
ENCODING 10
SWIDTH 41 0
DWIDTH 1 0
BBX 1 25 0 -5
BITMAP
00
00
00
00
00
00
00
00
00
00
00
00
00
00
00
00
00
00
00
00
00
00
00
00
00
ENDCHAR
STARTCHAR C013
ENCODING 11
SWIDTH 583 0
DWIDTH 14 0
BBX 14 25 0 -5
BITMAP
0200
0700
0f80
1fc0
3fe0
7770
e738
c718
0700
0700
0700
0700
0700
0700
0700
0700
0700
0700
0700
0700
0700
0000
0000
0000
0000
ENDCHAR
STARTCHAR C014
ENCODING 12
SWIDTH 41 0
DWIDTH 1 0
BBX 1 25 0 -5
BITMAP
00
00
00
00
00
00
00
00
00
00
00
00
00
00
00
00
00
00
00
00
00
00
00
00
00
ENDCHAR
STARTCHAR C015
ENCODING 13
SWIDTH 41 0
DWIDTH 1 0
BBX 1 25 0 -5
BITMAP
00
00
00
00
00
00
00
00
00
00
00
00
00
00
00
00
00
00
00
00
00
00
00
00
00
ENDCHAR
STARTCHAR C016
ENCODING 14
SWIDTH 958 0
DWIDTH 23 0
BBX 23 25 0 -5
BITMAP
000000
000000
000000
000000
000000
000000
1e0780
330cc0
619860
c0f030
c06030
c06030
c06030
c06030
c0f030
619860
339cc0
1f0f80
000000
000000
000000
000000
000000
000000
000000
ENDCHAR
STARTCHAR C017
ENCODING 15
SWIDTH 625 0
DWIDTH 15 0
BBX 15 25 0 -5
BITMAP
1c00
0600
0300
0380
0180
00c0
0060
0060
0030
1f30
3ff0
6078
4038
c018
c018
c018
4030
6030
2060
1fc0
0000
0000
0000
0000
0000
ENDCHAR
STARTCHAR C020
ENCODING 16
SWIDTH 708 0
DWIDTH 17 0
BBX 17 25 0 -5
BITMAP
0000
0000
0000
0000
0000
0ffc
1ffc
3ffc
7000
e000
c000
c000
c000
e000
7000
3ffc
1ffc
0ffc
0000
0000
0000
0000
0000
0000
0000
ENDCHAR
STARTCHAR C021
ENCODING 17
SWIDTH 708 0
DWIDTH 17 0
BBX 17 25 0 -5
BITMAP
0000
0000
0000
0000
0000
ffc0
ffe0
fff0
0038
001c
000c
000c
000c
001c
0038
fff0
ffe0
ffc0
0000
0000
0000
0000
0000
0000
0000
ENDCHAR
STARTCHAR C022
ENCODING 18
SWIDTH 625 0
DWIDTH 15 0
BBX 15 25 0 -5
BITMAP
0000
0000
0000
0000
0000
0f80
1fc0
38e0
7070
e038
e038
e038
e038
e038
e038
e038
e038
e038
e038
e038
0000
0000
0000
0000
0000
ENDCHAR
STARTCHAR C023
ENCODING 19
SWIDTH 625 0
DWIDTH 15 0
BBX 15 25 0 -5
BITMAP
0000
0000
0000
0000
0000
e038
e038
e038
e038
e038
e038
e038
e038
e038
e038
e038
7070
38e0
1fc0
0f80
0000
0000
0000
0000
0000
ENDCHAR
STARTCHAR C024
ENCODING 20
SWIDTH 666 0
DWIDTH 16 0
BBX 16 25 0 -5
BITMAP
c00c
c00c
6018
6018
6018
3030
3030
3ff0
1fe0
1860
1860
0cc0
0cc0
0cc0
0780
0780
0780
0300
0300
0300
0000
0000
0000
0000
0000
ENDCHAR
STARTCHAR C025
ENCODING 21
SWIDTH 625 0
DWIDTH 15 0
BBX 15 25 0 -5
BITMAP
fff8
fff8
fff8
0038
0038
0038
0038
0038
fff8
fff8
fff8
0038
0038
0038
0038
0038
0038
fff8
fff8
fff8
0000
0000
0000
0000
0000
ENDCHAR
STARTCHAR C026
ENCODING 22
SWIDTH 666 0
DWIDTH 16 0
BBX 16 25 0 -5
BITMAP
0000
0000
0000
0000
0000
0780
1fe0
2010
7878
4cc8
c78c
c30c
c78c
4cc8
7878
3030
1fe0
0780
0000
0000
0000
0000
0000
0000
0000
ENDCHAR
STARTCHAR C027
ENCODING 23
SWIDTH 750 0
DWIDTH 18 0
BBX 18 25 0 -5
BITMAP
0000
0000
0000
0000
0000
0000
0000
0c30
1818
300c
6006
ffff
ffff
6006
300c
1818
0c30
0000
0000
0000
0000
0000
0000
0000
0000
ENDCHAR
STARTCHAR C030
ENCODING 24
SWIDTH 750 0
DWIDTH 18 0
BBX 18 25 0 -5
BITMAP
0000
0000
0000
0000
0000
0000
0400
0c00
1800
3000
6000
ffff
ffff
6000
3000
1800
0c00
0400
0000
0000
0000
0000
0000
0000
0000
ENDCHAR
STARTCHAR C031
ENCODING 25
SWIDTH 750 0
DWIDTH 18 0
BBX 18 25 0 -5
BITMAP
000000
000000
000000
000000
000000
000000
002000
003000
003800
001c00
000e00
ffff00
ffff80
ffff00
000e00
001c00
003800
003000
002000
000000
000000
000000
000000
000000
000000
ENDCHAR
STARTCHAR C032
ENCODING 26
SWIDTH 666 0
DWIDTH 16 0
BBX 16 25 0 -5
BITMAP
0000
0000
0030
0030
0060
0060
00c0
00c0
0180
fff0
fff0
0300
0600
fff0
fff0
1800
3000
3000
6000
6000
c000
c000
0000
0000
0000
ENDCHAR
STARTCHAR C034
ENCODING 28
SWIDTH 583 0
DWIDTH 14 0
BBX 14 25 0 -5
BITMAP
0000
0000
0000
0000
0030
00f0
03c0
0f00
3c00
f000
f000
3c00
0f00
03c0
00f0
0030
0000
0000
fff0
fff0
0000
0000
0000
0000
0000
ENDCHAR
STARTCHAR C035
ENCODING 29
SWIDTH 583 0
DWIDTH 14 0
BBX 14 25 0 -5
BITMAP
0000
0000
0000
0000
c000
f000
3c00
0f00
03c0
00f0
00f0
03c0
0f00
3c00
f000
c000
0000
0000
fff0
fff0
0000
0000
0000
0000
0000
ENDCHAR
STARTCHAR C036
ENCODING 30
SWIDTH 500 0
DWIDTH 12 0
BBX 12 25 0 -5
BITMAP
0000
0000
0000
0000
0000
0000
0000
ffc0
ffc0
0000
0000
ffc0
ffc0
0000
0000
ffc0
ffc0
0000
0000
0000
0000
0000
0000
0000
0000
ENDCHAR
STARTCHAR C037
ENCODING 31
SWIDTH 708 0
DWIDTH 17 0
BBX 17 25 0 -5
BITMAP
0000
0000
0000
0000
0000
0000
c006
c006
600c
600c
3018
3018
1830
1830
0c60
0c60
06c0
06c0
0380
0100
0000
0000
0000
0000
0000
ENDCHAR
STARTCHAR C040
ENCODING 32
SWIDTH 416 0
DWIDTH 10 0
BBX 10 25 0 -5
BITMAP
00
00
00
00
00
00
00
00
00
00
00
00
00
00
00
00
00
00
00
00
00
00
00
00
00
ENDCHAR
STARTCHAR !
ENCODING 33
SWIDTH 291 0
DWIDTH 7 0
BBX 7 25 0 -5
BITMAP
00
f0
f0
f0
f0
f0
f0
f0
f0
f0
f0
f0
f0
00
00
00
f0
f0
f0
f0
00
00
00
00
00
ENDCHAR
STARTCHAR "
ENCODING 34
SWIDTH 458 0
DWIDTH 11 0
BBX 11 25 0 -5
BITMAP
e7
e7
e7
e7
e7
63
63
63
63
00
00
00
00
00
00
00
00
00
00
00
00
00
00
00
00
ENDCHAR
STARTCHAR #
ENCODING 35
SWIDTH 666 0
DWIDTH 16 0
BBX 16 25 0 -5
BITMAP
0000
0000
0000
0000
0000
0000
38e0
38e0
fff8
fff8
fff8
38e0
38e0
38e0
fff8
fff8
fff8
38e0
38e0
0000
0000
0000
0000
0000
0000
ENDCHAR
STARTCHAR $
ENCODING 36
SWIDTH 833 0
DWIDTH 20 0
BBX 20 25 0 -5
BITMAP
01c000
3ffe00
7fff00
ffff80
f1c780
e1c380
e1c000
e1c000
e1c000
fffe00
7fff00
3fff80
01c380
01c380
01c380
01c380
e1c380
f1c780
ffff80
7fff00
3ffe00
01c000
000000
000000
000000
ENDCHAR
STARTCHAR %
ENCODING 37
SWIDTH 833 0
DWIDTH 20 0
BBX 20 25 0 -5
BITMAP
7cc000
fec000
c6c000
c6c000
c6c000
fec000
7cc000
00c000
00c000
00c000
00c000
00c000
00c000
00cf80
00dfc0
00d8c0
00d8c0
00d8c0
00dfc0
00cf80
000000
000000
000000
000000
000000
ENDCHAR
STARTCHAR &
ENCODING 38
SWIDTH 833 0
DWIDTH 20 0
BBX 20 25 0 -5
BITMAP
0ff800
1ffc00
3ffe00
3c0f00
380700
380000
3c0000
1e0000
0f0000
3f8000
7fc000
f0e000
e07000
e03b80
e01f80
e00f80
f00f00
ffff80
7fffc0
3ffdc0
000000
000000
000000
000000
000000
ENDCHAR
STARTCHAR '
ENCODING 39
SWIDTH 291 0
DWIDTH 7 0
BBX 7 25 0 -5
BITMAP
e0
e0
e0
e0
e0
20
60
e0
c0
00
00
00
00
00
00
00
00
00
00
00
00
00
00
00
00
ENDCHAR
STARTCHAR (
ENCODING 40
SWIDTH 375 0
DWIDTH 9 0
BBX 9 25 0 -5
BITMAP
3e
7e
f8
f0
e0
e0
e0
e0
e0
e0
e0
e0
e0
e0
e0
e0
e0
e0
e0
f0
f8
7e
3e
00
00
ENDCHAR
STARTCHAR )
ENCODING 41
SWIDTH 375 0
DWIDTH 9 0
BBX 9 25 0 -5
BITMAP
f0
f8
3c
1e
0e
0e
0e
0e
0e
0e
0e
0e
0e
0e
0e
0e
0e
0e
0e
1e
3e
fc
f8
00
00
ENDCHAR
STARTCHAR *
ENCODING 42
SWIDTH 625 0
DWIDTH 15 0
BBX 15 25 0 -5
BITMAP
0000
0000
0000
0000
0780
0780
f7bc
f7bc
f03c
f03c
0000
0000
0000
f03c
f03c
f7bc
f7bc
0780
0780
0000
0000
0000
0000
0000
0000
ENDCHAR
STARTCHAR +
ENCODING 43
SWIDTH 625 0
DWIDTH 15 0
BBX 15 25 0 -5
BITMAP
0000
0000
0000
0000
0000
0700
0700
0700
0700
0700
fff8
fff8
fff8
0700
0700
0700
0700
0700
0000
0000
0000
0000
0000
0000
0000
ENDCHAR
STARTCHAR ,
ENCODING 44
SWIDTH 291 0
DWIDTH 7 0
BBX 7 25 0 -5
BITMAP
00
00
00
00
00
00
00
00
00
00
00
00
00
00
00
f0
f0
f0
f0
f0
30
30
70
f0
e0
ENDCHAR
STARTCHAR -
ENCODING 45
SWIDTH 541 0
DWIDTH 13 0
BBX 13 25 0 -5
BITMAP
0000
0000
0000
0000
0000
0000
0000
0000
0000
0000
ffe0
ffe0
ffe0
0000
0000
0000
0000
0000
0000
0000
0000
0000
0000
0000
0000
ENDCHAR
STARTCHAR .
ENCODING 46
SWIDTH 291 0
DWIDTH 7 0
BBX 7 25 0 -5
BITMAP
00
00
00
00
00
00
00
00
00
00
00
00
00
00
00
00
f0
f0
f0
f0
00
00
00
00
00
ENDCHAR
STARTCHAR /
ENCODING 47
SWIDTH 541 0
DWIDTH 13 0
BBX 13 25 0 -5
BITMAP
00e0
01e0
01c0
01c0
03c0
0380
0380
0780
0700
0700
0f00
0e00
0e00
1e00
1c00
1c00
3c00
3800
3800
7800
7000
7000
f000
e000
e000
ENDCHAR
STARTCHAR 0
ENCODING 48
SWIDTH 833 0
DWIDTH 20 0
BBX 20 25 0 -5
BITMAP
000000
3ffe00
7fff00
ffff80
f00780
e00380
e00380
e00380
e00380
e00380
e00380
e00380
e00380
e00380
e00380
e00380
f00780
ffff80
7fff00
3ffe00
000000
000000
000000
000000
000000
ENDCHAR
STARTCHAR 1
ENCODING 49
SWIDTH 416 0
DWIDTH 10 0
BBX 10 25 0 -5
BITMAP
00
1e
3e
7e
ee
0e
0e
0e
0e
0e
0e
0e
0e
0e
0e
0e
0e
0e
0e
0e
00
00
00
00
00
ENDCHAR
STARTCHAR 2
ENCODING 50
SWIDTH 791 0
DWIDTH 19 0
BBX 19 25 0 -5
BITMAP
0000
3ffc
7ffe
ffff
f00f
e007
e007
0007
0007
0007
000f
1fff
3ffe
7ffc
f800
f000
e000
ffff
ffff
ffff
0000
0000
0000
0000
0000
ENDCHAR
STARTCHAR 3
ENCODING 51
SWIDTH 791 0
DWIDTH 19 0
BBX 19 25 0 -5
BITMAP
0000
3ffc
7ffe
ffff
f00f
e007
e007
0007
000f
07fe
07fc
07fe
000f
0007
e007
e007
f00f
ffff
7ffe
3ffc
0000
0000
0000
0000
0000
ENDCHAR
STARTCHAR 4
ENCODING 52
SWIDTH 791 0
DWIDTH 19 0
BBX 19 25 0 -5
BITMAP
0000
001c
003c
007c
00fc
01fc
03dc
079c
0f1c
1e1c
3c1c
781c
f01c
ffff
ffff
ffff
001c
001c
001c
001c
0000
0000
0000
0000
0000
ENDCHAR
STARTCHAR 5
ENCODING 53
SWIDTH 791 0
DWIDTH 19 0
BBX 19 25 0 -5
BITMAP
0000
ffff
ffff
ffff
e000
e000
e000
effc
fffe
ffff
f00f
e007
0007
0007
0007
e007
f00f
ffff
7ffe
3ffc
0000
0000
0000
0000
0000
ENDCHAR
STARTCHAR 6
ENCODING 54
SWIDTH 791 0
DWIDTH 19 0
BBX 19 25 0 -5
BITMAP
0000
3ffc
7ffe
ffff
f00f
e007
e000
e000
effc
fffe
ffff
f00f
e007
e007
e007
e007
f00f
ffff
7ffe
3ffc
0000
0000
0000
0000
0000
ENDCHAR
STARTCHAR 7
ENCODING 55
SWIDTH 791 0
DWIDTH 19 0
BBX 19 25 0 -5
BITMAP
0000
ffff
ffff
ffff
0007
0007
000f
001e
003c
0078
00f0
01e0
03c0
0780
0f00
1e00
3c00
7800
7000
7000
0000
0000
0000
0000
0000
ENDCHAR
STARTCHAR 8
ENCODING 56
SWIDTH 791 0
DWIDTH 19 0
BBX 19 25 0 -5
BITMAP
0000
3ffc
7ffe
ffff
f00f
e007
e007
e007
f00f
7ffe
3ffc
7ffe
f00f
e007
e007
e007
f00f
ffff
7ffe
3ffc
0000
0000
0000
0000
0000
ENDCHAR
STARTCHAR 9
ENCODING 57
SWIDTH 791 0
DWIDTH 19 0
BBX 19 25 0 -5
BITMAP
0000
3ffc
7ffe
ffff
f00f
e007
e007
e007
e007
f00f
ffff
7fff
3fff
0007
0007
e007
f00f
ffff
7ffe
3ffc
0000
0000
0000
0000
0000
ENDCHAR
STARTCHAR :
ENCODING 58
SWIDTH 291 0
DWIDTH 7 0
BBX 7 25 0 -5
BITMAP
00
00
00
00
00
00
00
00
f0
f0
f0
f0
00
00
00
00
f0
f0
f0
f0
00
00
00
00
00
ENDCHAR
STARTCHAR ;
ENCODING 59
SWIDTH 291 0
DWIDTH 7 0
BBX 7 25 0 -5
BITMAP
00
00
00
00
00
00
00
00
f0
f0
f0
f0
00
00
00
00
f0
f0
f0
f0
70
70
e0
c0
00
ENDCHAR
STARTCHAR <
ENCODING 60
SWIDTH 666 0
DWIDTH 16 0
BBX 16 25 0 -5
BITMAP
0000
0000
0000
000c
003c
00fc
03f0
0fc0
3f00
fc00
f000
fc00
3f00
0fc0
03f0
00fc
003c
000c
0000
0000
0000
0000
0000
0000
0000
ENDCHAR
STARTCHAR =
ENCODING 61
SWIDTH 541 0
DWIDTH 13 0
BBX 13 25 0 -5
BITMAP
0000
0000
0000
0000
0000
0000
0000
ffe0
ffe0
ffe0
0000
0000
ffe0
ffe0
ffe0
0000
0000
0000
0000
0000
0000
0000
0000
0000
0000
ENDCHAR
STARTCHAR >
ENCODING 62
SWIDTH 666 0
DWIDTH 16 0
BBX 16 25 0 -5
BITMAP
0000
0000
0000
c000
f000
fc00
3f00
0fc0
03f0
00fc
003c
00fc
03f0
0fc0
3f00
fc00
f000
c000
0000
0000
0000
0000
0000
0000
0000
ENDCHAR
STARTCHAR ?
ENCODING 63
SWIDTH 833 0
DWIDTH 20 0
BBX 20 25 0 -5
BITMAP
000000
3ffe00
7fff00
ffff80
f00780
e00380
000380
000780
03ff80
07ff00
0ffe00
0f8000
0f0000
0f0000
000000
000000
0f0000
0f0000
0f0000
0f0000
000000
000000
000000
000000
000000
ENDCHAR
STARTCHAR @
ENCODING 64
SWIDTH 833 0
DWIDTH 20 0
BBX 20 25 0 -5
BITMAP
000000
000000
000000
000000
000000
1ffe00
3fff00
780780
f003c0
e3e1c0
c7f0c0
ce38c0
cc18c0
cc18c0
cc18c0
ce39c0
cfff80
c7ff00
e00000
700000
3fffc0
1fffc0
000000
000000
000000
ENDCHAR
STARTCHAR A
ENCODING 65
SWIDTH 791 0
DWIDTH 19 0
BBX 19 25 0 -5
BITMAP
0000
1ff8
7ffe
ffff
f00f
e007
e007
e007
e007
e007
e007
e007
ffff
ffff
ffff
e007
e007
e007
e007
e007
0000
0000
0000
0000
0000
ENDCHAR
STARTCHAR B
ENCODING 66
SWIDTH 791 0
DWIDTH 19 0
BBX 19 25 0 -5
BITMAP
0000
fff8
fffc
fffe
e01e
e00e
e00e
e00e
e01c
fff8
fffc
fffe
e00f
e007
e007
e007
e00f
ffff
fffe
fffc
0000
0000
0000
0000
0000
ENDCHAR
STARTCHAR C
ENCODING 67
SWIDTH 833 0
DWIDTH 20 0
BBX 20 25 0 -5
BITMAP
000000
3ffe00
7fff00
ffff80
f00780
e00380
e00380
e00000
e00000
e00000
e00000
e00000
e00000
e00000
e00380
e00380
f00780
ffff80
7fff00
3ffe00
000000
000000
000000
000000
000000
ENDCHAR
STARTCHAR D
ENCODING 68
SWIDTH 833 0
DWIDTH 20 0
BBX 20 25 0 -5
BITMAP
000000
fffe00
ffff00
ffff80
e00780
e00380
e00380
e00380
e00380
e00380
e00380
e00380
e00380
e00380
e00380
e00380
e00780
ffff80
ffff00
fffe00
000000
000000
000000
000000
000000
ENDCHAR
STARTCHAR E
ENCODING 69
SWIDTH 791 0
DWIDTH 19 0
BBX 19 25 0 -5
BITMAP
0000
ffff
ffff
ffff
e000
e000
e000
e000
e000
fffe
fffe
fffe
e000
e000
e000
e000
e000
ffff
ffff
ffff
0000
0000
0000
0000
0000
ENDCHAR
STARTCHAR F
ENCODING 70
SWIDTH 791 0
DWIDTH 19 0
BBX 19 25 0 -5
BITMAP
0000
ffff
ffff
ffff
e000
e000
e000
e000
e000
fffe
fffe
fffe
e000
e000
e000
e000
e000
e000
e000
e000
0000
0000
0000
0000
0000
ENDCHAR
STARTCHAR G
ENCODING 71
SWIDTH 833 0
DWIDTH 20 0
BBX 20 25 0 -5
BITMAP
000000
3ffe00
7fff00
ffff80
f00780
e00380
e00380
e00000
e00000
e00000
e00000
e0ff80
e0ff80
e00380
e00380
e00380
f00780
ffff80
7fff00
3ffe00
000000
000000
000000
000000
000000
ENDCHAR
STARTCHAR H
ENCODING 72
SWIDTH 833 0
DWIDTH 20 0
BBX 20 25 0 -5
BITMAP
000000
e00380
e00380
e00380
e00380
e00380
e00380
e00380
e00380
e00380
ffff80
ffff80
ffff80
e00380
e00380
e00380
e00380
e00380
e00380
e00380
000000
000000
000000
000000
000000
ENDCHAR
STARTCHAR I
ENCODING 73
SWIDTH 333 0
DWIDTH 8 0
BBX 8 25 0 -5
BITMAP
00
e0
e0
e0
e0
e0
e0
e0
e0
e0
e0
e0
e0
e0
e0
e0
e0
e0
e0
e0
00
00
00
00
00
ENDCHAR
STARTCHAR J
ENCODING 74
SWIDTH 750 0
DWIDTH 18 0
BBX 18 25 0 -5
BITMAP
0000
0007
0007
0007
0007
0007
0007
0007
0007
0007
0007
0007
0007
0007
0007
e007
f00f
ffff
7ffe
3ffc
0000
0000
0000
0000
0000
ENDCHAR
STARTCHAR K
ENCODING 75
SWIDTH 791 0
DWIDTH 19 0
BBX 19 25 0 -5
BITMAP
0000
e00f
e01e
e03c
e078
e0f0
e1e0
e3c0
e780
ff00
fe00
ff00
e780
e3c0
e1e0
e0f0
e078
e03c
e01e
e00f
0000
0000
0000
0000
0000
ENDCHAR
STARTCHAR L
ENCODING 76
SWIDTH 750 0
DWIDTH 18 0
BBX 18 25 0 -5
BITMAP
0000
e000
e000
e000
e000
e000
e000
e000
e000
e000
e000
e000
e000
e000
e000
e000
e000
fffe
fffe
fffe
0000
0000
0000
0000
0000
ENDCHAR
STARTCHAR M
ENCODING 77
SWIDTH 1041 0
DWIDTH 25 0
BBX 25 25 0 -5
BITMAP
000000
f8007c
f8007c
fc00fc
fc00fc
fe01fc
ee01dc
ef03dc
e7039c
e7879c
e3871c
e3cf1c
e1ce1c
e1fe1c
e0fc1c
e0fc1c
e0781c
e0781c
e0301c
e0301c
000000
000000
000000
000000
000000
ENDCHAR
STARTCHAR N
ENCODING 78
SWIDTH 791 0
DWIDTH 19 0
BBX 19 25 0 -5
BITMAP
0000
f807
fc07
fc07
fe07
fe07
ef07
e707
e787
e387
e3c7
e1c7
e1e7
e0e7
e0f7
e077
e07f
e03f
e03f
e01f
0000
0000
0000
0000
0000
ENDCHAR
STARTCHAR O
ENCODING 79
SWIDTH 833 0
DWIDTH 20 0
BBX 20 25 0 -5
BITMAP
000000
3ffe00
7fff00
ffff80
f00780
e00380
e00380
e00380
e00380
e00380
e00380
e00380
e00380
e00380
e00380
e00380
f00780
ffff80
7fff00
3ffe00
000000
000000
000000
000000
000000
ENDCHAR
STARTCHAR P
ENCODING 80
SWIDTH 791 0
DWIDTH 19 0
BBX 19 25 0 -5
BITMAP
0000
fffc
fffe
ffff
e00f
e007
e007
e007
e007
e00f
ffff
fffe
fffc
e000
e000
e000
e000
e000
e000
e000
0000
0000
0000
0000
0000
ENDCHAR
STARTCHAR Q
ENCODING 81
SWIDTH 875 0
DWIDTH 21 0
BBX 21 25 0 -5
BITMAP
000000
3ffe00
7fff00
ffff80
f00780
e00380
e00380
e00380
e00380
e00380
e00380
e00380
e06380
e07380
e07b80
e03f80
f01f80
ffffc0
7ffbc0
3ff3c0
000000
000000
000000
000000
000000
ENDCHAR
STARTCHAR R
ENCODING 82
SWIDTH 833 0
DWIDTH 20 0
BBX 20 25 0 -5
BITMAP
000000
fffe00
ffff00
ffff80
e00780
e00380
e00380
e00380
e00380
e00780
ffff80
ffff00
fffe00
e00f00
e00780
e00380
e00380
e00380
e00380
e00380
000000
000000
000000
000000
000000
ENDCHAR
STARTCHAR S
ENCODING 83
SWIDTH 833 0
DWIDTH 20 0
BBX 20 25 0 -5
BITMAP
000000
3ffe00
7fff00
ffff80
f00780
e00380
e00000
e00000
e00000
fffe00
7fff00
3fff80
000380
000380
000380
000380
e00380
f00780
ffff80
7fff00
3ffe00
000000
000000
000000
000000
ENDCHAR
STARTCHAR T
ENCODING 84
SWIDTH 833 0
DWIDTH 20 0
BBX 20 25 0 -5
BITMAP
000000
ffff80
ffff80
ffff80
01c000
01c000
01c000
01c000
01c000
01c000
01c000
01c000
01c000
01c000
01c000
01c000
01c000
01c000
01c000
01c000
000000
000000
000000
000000
000000
ENDCHAR
STARTCHAR U
ENCODING 85
SWIDTH 833 0
DWIDTH 20 0
BBX 20 25 0 -5
BITMAP
000000
e00380
e00380
e00380
e00380
e00380
e00380
e00380
e00380
e00380
e00380
e00380
e00380
e00380
e00380
e00380
f00780
ffff80
7fff00
3ffe00
000000
000000
000000
000000
000000
ENDCHAR
STARTCHAR V
ENCODING 86
SWIDTH 916 0
DWIDTH 22 0
BBX 22 25 0 -5
BITMAP
000000
e000e0
e000e0
e000e0
7001c0
7001c0
380380
380380
1c0700
1c0700
0e0e00
0e0e00
071c00
071c00
03b800
03b800
01f000
01f000
00e000
00e000
000000
000000
000000
000000
000000
ENDCHAR
STARTCHAR W
ENCODING 87
SWIDTH 1166 0
DWIDTH 28 0
BBX 28 25 0 -5
BITMAP
00000000
c0060030
c0060030
e00f0070
600f0060
600f0060
701f80e0
301980c0
301980c0
3839c1c0
1830c180
1830c180
1c70e380
0c606300
0c606300
0ee07700
06c03600
07c03e00
07c03e00
03801c00
00000000
00000000
00000000
00000000
00000000
ENDCHAR
STARTCHAR X
ENCODING 88
SWIDTH 833 0
DWIDTH 20 0
BBX 20 25 0 -5
BITMAP
000000
e000e0
f001e0
7803c0
3c0780
1e0f00
0f1e00
07bc00
03f800
01f000
00e000
01f000
03f800
07bc00
0f1e00
1e0f00
3c0780
7803c0
f001e0
e000e0
000000
000000
000000
000000
000000
ENDCHAR
STARTCHAR Y
ENCODING 89
SWIDTH 833 0
DWIDTH 20 0
BBX 20 25 0 -5
BITMAP
000000
e000e0
f001e0
7803c0
3c0780
1e0f00
0f1e00
07bc00
03f800
01f000
00e000
00e000
00e000
00e000
00e000
00e000
00e000
00e000
00e000
00e000
000000
000000
000000
000000
000000
ENDCHAR
STARTCHAR Z
ENCODING 90
SWIDTH 791 0
DWIDTH 19 0
BBX 19 25 0 -5
BITMAP
000000
ffff80
ffff80
ffff80
000780
000f00
001e00
003c00
007800
00f000
01e000
03c000
078000
0f0000
1e0000
3c0000
780000
ffff80
ffff80
ffff80
000000
000000
000000
000000
000000
ENDCHAR
STARTCHAR [
ENCODING 91
SWIDTH 416 0
DWIDTH 10 0
BBX 10 25 0 -5
BITMAP
fe
fe
fe
e0
e0
e0
e0
e0
e0
e0
e0
e0
e0
e0
e0
e0
e0
e0
e0
e0
e0
e0
fe
fe
fe
ENDCHAR
STARTCHAR \
ENCODING 92
SWIDTH 541 0
DWIDTH 13 0
BBX 13 25 0 -5
BITMAP
e000
e000
e000
f000
7000
7000
7800
3800
3800
3c00
1c00
1c00
1e00
0e00
0e00
0f00
0700
0700
0780
0380
0380
03c0
01c0
01c0
01c0
ENDCHAR
STARTCHAR ]
ENCODING 93
SWIDTH 416 0
DWIDTH 10 0
BBX 10 25 0 -5
BITMAP
fe
fe
fe
0e
0e
0e
0e
0e
0e
0e
0e
0e
0e
0e
0e
0e
0e
0e
0e
0e
0e
0e
fe
fe
fe
ENDCHAR
STARTCHAR _
ENCODING 95
SWIDTH 1166 0
DWIDTH 28 0
BBX 28 25 0 -5
BITMAP
00000000
00000000
00000000
00000000
00000000
00000000
00000000
00000000
00000000
00000000
00000000
00000000
00000000
00000000
00000000
00000000
00000000
00000000
00000000
00000000
fffffff0
fffffff0
fffffff0
00000000
00000000
ENDCHAR
STARTCHAR `
ENCODING 96
SWIDTH 291 0
DWIDTH 7 0
BBX 7 25 0 -5
BITMAP
00
e0
e0
e0
e0
80
c0
e0
60
00
00
00
00
00
00
00
00
00
00
00
00
00
00
00
00
ENDCHAR
STARTCHAR a
ENCODING 97
SWIDTH 666 0
DWIDTH 16 0
BBX 16 25 0 -5
BITMAP
0000
0000
0000
0000
0000
0000
3ff0
7ff8
fffc
f03c
e01c
001c
3ffc
7ffc
f07c
e01c
e01c
f03c
7ffc
3fdc
0000
0000
0000
0000
0000
ENDCHAR
STARTCHAR b
ENCODING 98
SWIDTH 708 0
DWIDTH 17 0
BBX 17 25 0 -5
BITMAP
0000
e000
e000
e000
e000
e000
eff8
fffc
fffe
f01e
e00e
e00e
e00e
e00e
e00e
e00e
f01e
fffe
fffc
eff8
0000
0000
0000
0000
0000
ENDCHAR
STARTCHAR c
ENCODING 99
SWIDTH 666 0
DWIDTH 16 0
BBX 16 25 0 -5
BITMAP
0000
0000
0000
0000
0000
0000
3ff0
7ff8
fffc
f03c
e01c
e000
e000
e000
e000
e01c
f03c
fffc
7ff8
3ff0
0000
0000
0000
0000
0000
ENDCHAR
STARTCHAR d
ENCODING 100
SWIDTH 708 0
DWIDTH 17 0
BBX 17 25 0 -5
BITMAP
0000
000e
000e
000e
000e
000e
3fee
7ffe
fffe
f01e
e00e
e00e
e00e
e00e
e00e
e00e
f01e
fffe
7ffe
3fee
0000
0000
0000
0000
0000
ENDCHAR
STARTCHAR e
ENCODING 101
SWIDTH 666 0
DWIDTH 16 0
BBX 16 25 0 -5
BITMAP
0000
0000
0000
0000
0000
0000
3ff0
7ff8
fffc
f03c
e01c
fffc
fffc
fffc
e000
e01c
f03c
fffc
7ff8
3ff0
0000
0000
0000
0000
0000
ENDCHAR
STARTCHAR f
ENCODING 102
SWIDTH 500 0
DWIDTH 12 0
BBX 12 25 0 -5
BITMAP
0000
1f00
3f80
3980
3800
3800
3800
3800
ff00
ff00
3800
3800
3800
3800
3800
3800
3800
3800
3800
3800
0000
0000
0000
0000
0000
ENDCHAR
STARTCHAR g
ENCODING 103
SWIDTH 708 0
DWIDTH 17 0
BBX 17 25 0 -5
BITMAP
0000
0000
0000
0000
0000
0000
3fee
7ffe
fffe
f01e
e00e
e00e
e00e
e00e
e00e
e00e
f01e
fffe
7ffe
3fee
000e
e01e
fffe
7ffc
3ff8
ENDCHAR
STARTCHAR h
ENCODING 104
SWIDTH 708 0
DWIDTH 17 0
BBX 17 25 0 -5
BITMAP
0000
e000
e000
e000
e000
e000
eff8
fffc
fffe
f01e
e00e
e00e
e00e
e00e
e00e
e00e
e00e
e00e
e00e
e00e
0000
0000
0000
0000
0000
ENDCHAR
STARTCHAR i
ENCODING 105
SWIDTH 291 0
DWIDTH 7 0
BBX 7 25 0 -5
BITMAP
00
e0
e0
e0
00
00
00
e0
e0
e0
e0
e0
e0
e0
e0
e0
e0
e0
e0
e0
00
00
00
00
00
ENDCHAR
STARTCHAR j
ENCODING 106
SWIDTH 375 0
DWIDTH 9 0
BBX 9 25 0 -5
BITMAP
00
1c
1c
1c
00
00
00
1c
1c
1c
1c
1c
1c
1c
1c
1c
1c
1c
1c
1c
1c
1c
3c
f8
f0
ENDCHAR
STARTCHAR k
ENCODING 107
SWIDTH 583 0
DWIDTH 14 0
BBX 14 25 0 -5
BITMAP
0000
0000
e000
e000
e000
e000
e000
e0e0
e1e0
e3c0
e780
ef00
fe00
fc00
fe00
ef00
e780
e3c0
e1e0
e0e0
0000
0000
0000
0000
0000
ENDCHAR
STARTCHAR l
ENCODING 108
SWIDTH 291 0
DWIDTH 7 0
BBX 7 25 0 -5
BITMAP
00
e0
e0
e0
e0
e0
e0
e0
e0
e0
e0
e0
e0
e0
e0
e0
e0
e0
e0
e0
00
00
00
00
00
ENDCHAR
STARTCHAR m
ENCODING 109
SWIDTH 958 0
DWIDTH 23 0
BBX 23 25 0 -5
BITMAP
000000
000000
000000
000000
000000
000000
000000
e7c7e0
efeff0
fffff8
f0f878
e07038
e07038
e07038
e07038
e07038
e07038
e07038
e07038
e07038
000000
000000
000000
000000
000000
ENDCHAR
STARTCHAR n
ENCODING 110
SWIDTH 666 0
DWIDTH 16 0
BBX 16 25 0 -5
BITMAP
0000
0000
0000
0000
0000
0000
e7f0
eff8
fffc
f03c
e01c
e01c
e01c
e01c
e01c
e01c
e01c
e01c
e01c
e01c
0000
0000
0000
0000
0000
ENDCHAR
STARTCHAR o
ENCODING 111
SWIDTH 708 0
DWIDTH 17 0
BBX 17 25 0 -5
BITMAP
0000
0000
0000
0000
0000
0000
3ff8
7ffc
fffe
f01e
e00e
e00e
e00e
e00e
e00e
e00e
f01e
fffe
7ffc
3ff8
0000
0000
0000
0000
0000
ENDCHAR
STARTCHAR p
ENCODING 112
SWIDTH 708 0
DWIDTH 17 0
BBX 17 25 0 -5
BITMAP
0000
0000
0000
0000
0000
0000
eff8
fffc
fffe
f01e
e00e
e00e
e00e
e00e
e00e
e00e
f01e
fffe
fffc
fff8
e000
e000
e000
e000
e000
ENDCHAR
STARTCHAR q
ENCODING 113
SWIDTH 708 0
DWIDTH 17 0
BBX 17 25 0 -5
BITMAP
0000
0000
0000
0000
0000
0000
3fdc
7ffc
fffc
f03c
e01c
e01c
e01c
e01c
e01c
e01c
f03c
fffc
7ffc
3fdc
001c
001c
001c
001c
001c
ENDCHAR
STARTCHAR r
ENCODING 114
SWIDTH 500 0
DWIDTH 12 0
BBX 12 25 0 -5
BITMAP
0000
0000
0000
0000
0000
0000
ef80
ffc0
ffc0
f1c0
e000
e000
e000
e000
e000
e000
e000
e000
e000
0000
0000
0000
0000
0000
0000
ENDCHAR
STARTCHAR s
ENCODING 115
SWIDTH 708 0
DWIDTH 17 0
BBX 17 25 0 -5
BITMAP
0000
0000
0000
0000
0000
0000
3ff8
7ffc
fffe
f01e
e000
fff8
7ffc
3ffe
001e
e00e
f01e
fffe
7ffc
3ff8
0000
0000
0000
0000
0000
ENDCHAR
STARTCHAR t
ENCODING 116
SWIDTH 458 0
DWIDTH 11 0
BBX 11 25 0 -5
BITMAP
00
38
38
38
38
38
ff
ff
38
38
38
38
38
38
38
38
38
3b
3f
3f
00
00
00
00
00
ENDCHAR
STARTCHAR u
ENCODING 117
SWIDTH 708 0
DWIDTH 17 0
BBX 17 25 0 -5
BITMAP
0000
0000
0000
0000
0000
0000
e00e
e00e
e00e
e00e
e00e
e00e
e00e
e00e
e00e
e00e
f01e
fffe
7ffe
3ff6
0000
0000
0000
0000
0000
ENDCHAR
STARTCHAR v
ENCODING 118
SWIDTH 625 0
DWIDTH 15 0
BBX 15 25 0 -5
BITMAP
0000
0000
0000
0000
0000
0000
0000
e038
e038
e038
7070
7070
38e0
38e0
1dc0
1dc0
0d80
0f80
0700
0700
0000
0000
0000
0000
0000
ENDCHAR
STARTCHAR w
ENCODING 119
SWIDTH 1041 0
DWIDTH 25 0
BBX 25 25 0 -5
BITMAP
000000
000000
000000
000000
000000
000000
000000
e0380e
e0380e
e0380e
707c1c
706c1c
38ee38
38ee38
1dc770
1dc770
0d8360
0f83e0
0701c0
0701c0
000000
000000
000000
000000
000000
ENDCHAR
STARTCHAR x
ENCODING 120
SWIDTH 625 0
DWIDTH 15 0
BBX 15 25 0 -5
BITMAP
0000
0000
0000
0000
0000
0000
0000
e01c
f03c
7878
3cf0
1fe0
0fc0
0780
0fc0
1fe0
3cf0
7878
f03c
e01c
0000
0000
0000
0000
0000
ENDCHAR
STARTCHAR y
ENCODING 121
SWIDTH 625 0
DWIDTH 15 0
BBX 15 25 0 -5
BITMAP
0000
0000
0000
0000
0000
0000
0000
e038
e038
e038
7070
7070
38e0
38e0
1dc0
1dc0
0f80
0f80
0700
0700
0e00
0e00
1c00
1c00
3800
ENDCHAR
STARTCHAR z
ENCODING 122
SWIDTH 583 0
DWIDTH 14 0
BBX 14 25 0 -5
BITMAP
0000
0000
0000
0000
0000
0000
0000
ffe0
ffe0
ffe0
01c0
0380
0700
0e00
1c00
3800
7000
ffe0
ffe0
ffe0
0000
0000
0000
0000
0000
ENDCHAR
STARTCHAR {
ENCODING 123
SWIDTH 458 0
DWIDTH 11 0
BBX 11 25 0 -5
BITMAP
0f
1c
30
30
30
38
18
18
18
10
20
60
e0
60
20
10
18
18
18
38
30
30
30
1c
0f
ENDCHAR
STARTCHAR |
ENCODING 124
SWIDTH 291 0
DWIDTH 7 0
BBX 7 25 0 -5
BITMAP
e0
e0
e0
e0
e0
e0
e0
e0
e0
e0
e0
e0
e0
e0
e0
e0
e0
e0
e0
e0
e0
e0
e0
e0
e0
ENDCHAR
STARTCHAR }
ENCODING 125
SWIDTH 458 0
DWIDTH 11 0
BBX 11 25 0 -5
BITMAP
f0
38
0c
0c
0c
1c
18
18
18
08
04
06
07
06
04
08
18
18
18
1c
0c
0c
0c
38
f0
ENDCHAR
STARTCHAR ~
ENCODING 126
SWIDTH 666 0
DWIDTH 16 0
BBX 16 25 0 -5
BITMAP
0000
0000
0000
0000
0000
0000
0000
0000
1c04
3e04
7f0c
6798
c3f8
81f0
80e0
0000
0000
0000
0000
0000
0000
0000
0000
0000
0000
ENDCHAR
STARTCHAR C177
ENCODING 127
SWIDTH 666 0
DWIDTH 16 0
BBX 16 25 0 -5
BITMAP
00
00
00
00
00
00
00
00
00
00
00
00
00
00
00
00
00
00
00
00
00
00
00
00
00
ENDCHAR
ENDFONT
